HIERARCHY
ROOT SpineBase
{
  OFFSET 0.000000 0.000000 0.000000
  CHANNELS 6 Xposition Yposition Zposition Zrotation Xrotation Yrotation
  JOINT SpineMid
  {
    OFFSET -0.000000 29.972293 0.000000
    CHANNELS 3 Zrotation Xrotation Yrotation
    JOINT SpineShoulder
    {
      OFFSET -0.052874 22.250896 -0.776922
      CHANNELS 3 Zrotation Xrotation Yrotation
      JOINT Neck
      {
        OFFSET -0.031764 7.348011 -0.573381
        CHANNELS 3 Zrotation Xrotation Yrotation
        JOINT Head
        {
          OFFSET -3.411227 12.644524 -1.843960
          CHANNELS 3 Zrotation Xrotation Yrotation
          End Site
          {
            OFFSET 0 0 0
          }
        }
      }
      JOINT ShoulderLeft
      {
        OFFSET -13.901269 -0.280399 10.872804
        CHANNELS 3 Zrotation Xrotation Yrotation
        JOINT ElbowLeft
        {
          OFFSET -5.816620 -19.622787 -18.354633
          CHANNELS 3 Zrotation Xrotation Yrotation
          JOINT WristLeft
          {
            OFFSET 1.277986 -26.719731 -1.444538
            CHANNELS 3 Zrotation Xrotation Yrotation
            JOINT HandLeft
            {
              OFFSET 0.962562 -3.766353 -0.966514
              CHANNELS 3 Zrotation Xrotation Yrotation
              JOINT HandTipLeft
              {
                OFFSET 2.546054 -1.939755 -0.837161
                CHANNELS 3 Zrotation Xrotation Yrotation
                End Site
                {
                  OFFSET 0 0 0
                }
              }
              JOINT ThumbLeft
              {
                OFFSET 4.336580 1.615112 -4.035981
                CHANNELS 3 Zrotation Xrotation Yrotation
                End Site
                {
                  OFFSET 0 0 0
                }
              }
            }
          }
        }
      }
      JOINT ShoulderRight
      {
        OFFSET 13.009880 -2.503959 -8.126466
        CHANNELS 3 Zrotation Xrotation Yrotation
        JOINT ElbowRight
        {
          OFFSET 12.789662 -17.201528 2.271080
          CHANNELS 3 Zrotation Xrotation Yrotation
          JOINT WristRight
          {
            OFFSET -19.320914 -3.249698 -14.511385
            CHANNELS 3 Zrotation Xrotation Yrotation
            JOINT HandRight
            {
              OFFSET -6.668939 -1.148498 -1.915114
              CHANNELS 3 Zrotation Xrotation Yrotation
              JOINT HandTipRight
              {
                OFFSET -4.929693 1.422608 -1.129048
                CHANNELS 3 Zrotation Xrotation Yrotation
                End Site
                {
                  OFFSET 0 0 0
                }
              }
              JOINT ThumbRight
              {
                OFFSET -0.447007 -5.620235 0.011556
                CHANNELS 3 Zrotation Xrotation Yrotation
                End Site
                {
                  OFFSET 0 0 0
                }
              }
            }
          }
        }
      }
    }
  }
  JOINT HipLeft
  {
    OFFSET -6.660273 0.096404 -0.307686
    CHANNELS 3 Zrotation Xrotation Yrotation
    JOINT KneeLeft
    {
      OFFSET 3.369903 -25.089735 14.530023
      CHANNELS 3 Zrotation Xrotation Yrotation
      JOINT AnkleLeft
      {
        OFFSET 11.783065 -32.177563 15.144474
        CHANNELS 3 Zrotation Xrotation Yrotation
        JOINT FootLeft
        {
          OFFSET -4.559470 -5.578941 -7.365256
          CHANNELS 3 Zrotation Xrotation Yrotation
          End Site
          {
            OFFSET 0 0 0
          }
        }
      }
    }
  }
  JOINT HipRight
  {
    OFFSET 6.642852 1.011956 -6.427576
    CHANNELS 3 Zrotation Xrotation Yrotation
    JOINT KneeRight
    {
      OFFSET 4.141609 -26.910318 2.670530
      CHANNELS 3 Zrotation Xrotation Yrotation
      JOINT AnkleRight
      {
        OFFSET 7.440328 -32.235108 9.601447
        CHANNELS 3 Zrotation Xrotation Yrotation
        JOINT FootRight
        {
          OFFSET -5.323430 -4.785300 -9.381123
          CHANNELS 3 Zrotation Xrotation Yrotation
          End Site
          {
            OFFSET 0 0 0
          }
        }
      }
    }
  }
}
MOTION
Frames: 15
Frame Time: 0.033333
6.256660 69.858194 336.400303 1.539505 -6.648771 -70.356766 0.885383 -0.485354 70.502316 -0.172150 -1.045066 0.048419 -9.873361 23.811712 5.580160 0.000000 0.000000 0.000000 7.570745 30.081363 -14.847342 -4.094534 38.515607 13.792530 -22.948895 -5.103752 1.214195 -3.650245 -21.982871 24.774499 0.000000 0.000000 0.000000 0.000000 0.000000 0.000000 -39.063375 25.234014 25.451760 10.901012 5.775653 -27.558322 0.339965 5.216929 -36.905191 25.924224 -14.889792 39.870443 0.000000 0.000000 0.000000 0.000000 0.000000 0.000000 11.932965 -11.550129 66.631346 0.850266 12.471531 0.823788 4.311480 9.012756 3.011511 0.000000 0.000000 0.000000 -35.605073 6.392364 76.633639 0.904816 -34.489861 -5.701584 1.971232 5.911389 -2.572588 0.000000 0.000000 0.000000
6.448790 70.662932 334.253053 1.878641 -4.379696 -70.286997 1.045267 -1.057798 70.444376 0.199305 -1.317909 0.057884 -10.441170 22.011984 5.275826 0.000000 0.000000 0.000000 6.567501 31.661835 -14.576225 -3.948033 37.903768 14.298250 -27.341485 -10.880196 -2.470362 11.007357 -14.953247 31.724373 0.000000 0.000000 0.000000 0.000000 0.000000 0.000000 -36.026436 19.226889 16.542518 0.560978 23.827838 -21.728918 6.794688 -0.905023 -32.542698 19.163631 -20.322971 37.877268 0.000000 0.000000 0.000000 0.000000 0.000000 0.000000 13.934577 -13.093262 66.643984 1.071393 12.541350 0.956891 0.978321 16.893174 1.247855 0.000000 0.000000 0.000000 -29.934376 4.263923 74.876232 2.063536 -31.049289 -4.642852 1.090952 6.013813 -1.258553 0.000000 0.000000 0.000000
7.479789 70.633907 333.696594 2.564507 -3.602016 -69.431847 0.911125 -0.984506 69.622954 -0.680712 -0.614249 0.054360 -8.484358 19.655196 4.544875 0.000000 0.000000 0.000000 5.338830 32.796603 -13.587942 -5.206543 35.959663 14.519822 -33.826125 -15.580075 -7.207189 26.565243 -7.717937 35.533516 0.000000 0.000000 0.000000 0.000000 0.000000 0.000000 -33.347672 14.368418 10.285759 -6.117186 32.009486 -17.022951 -14.435234 -3.590639 -22.603165 30.291605 -16.691121 16.567307 0.000000 0.000000 0.000000 0.000000 0.000000 0.000000 12.327915 -15.982562 64.908025 3.581414 12.323726 1.991256 -1.063157 18.298066 1.728680 0.000000 0.000000 0.000000 -27.746171 1.981973 72.798576 4.446404 -29.412690 -3.466823 -0.524198 6.083452 1.299065 0.000000 0.000000 0.000000
8.650002 70.355046 333.415211 3.227354 -3.183078 -65.793918 0.967537 -0.746758 66.023408 -1.019299 -0.219500 0.079887 -7.839910 18.739307 4.269794 0.000000 0.000000 0.000000 3.443654 34.516789 -12.773810 -3.861138 31.935941 14.081226 -41.973793 -17.851921 -12.243985 37.619591 2.104227 38.860223 0.000000 0.000000 0.000000 0.000000 0.000000 0.000000 -33.304459 12.319455 7.919368 -5.790240 33.631795 -17.639930 -55.942458 -32.980750 -0.368323 63.273649 -20.192571 -42.142612 0.000000 0.000000 0.000000 0.000000 0.000000 0.000000 7.401135 -18.199524 59.911612 6.133261 10.153993 2.855486 -2.672648 17.414248 3.407401 0.000000 0.000000 0.000000 -24.210445 -0.016328 67.846502 6.957766 -25.637917 -2.236176 -1.403233 6.104893 2.701015 0.000000 0.000000 0.000000
9.648405 69.767204 333.515659 3.445178 -3.096100 -55.420557 1.153739 -0.331419 55.664261 -1.290933 0.098470 0.101415 -6.998164 18.260101 4.082200 0.000000 0.000000 0.000000 1.674084 35.989334 -11.964370 -3.861232 27.658218 13.604923 -47.241248 -19.649867 -15.742392 41.050740 2.941410 35.368919 0.000000 0.000000 0.000000 0.000000 0.000000 0.000000 -33.114650 13.064927 9.038497 1.856659 26.923022 -23.870017 -29.430646 -32.266748 12.402585 48.823377 -22.256794 -47.351758 0.000000 0.000000 0.000000 0.000000 0.000000 0.000000 -1.081648 -16.901481 48.290922 7.289002 5.251713 2.814516 -2.788894 14.234179 5.699692 0.000000 0.000000 0.000000 -19.828223 -0.413918 56.493084 8.843404 -20.005085 -1.389891 -2.021950 6.052965 4.470455 0.000000 0.000000 0.000000
10.612992 69.087038 333.708249 3.616466 -3.131534 -29.292564 1.396355 -0.411466 29.553220 -1.478618 0.341089 0.121638 -6.587918 18.057090 3.992107 0.000000 0.000000 0.000000 -0.052516 38.187836 -11.325988 -3.516337 23.100507 13.199073 -39.672917 -11.918163 -7.100313 32.119886 -7.996187 35.678926 0.000000 0.000000 0.000000 0.000000 0.000000 0.000000 -37.154186 17.870470 16.231765 15.534458 8.169674 -31.753363 6.673143 -4.064876 -18.420222 28.217218 -16.917398 -1.651676 0.000000 0.000000 0.000000 0.000000 0.000000 0.000000 -12.624682 -10.772898 20.696015 9.620422 0.897305 3.576565 -4.589808 15.843221 5.611517 0.000000 0.000000 0.000000 -16.084676 1.380149 29.621141 10.590465 -13.123489 -0.714758 -2.511780 5.949876 6.089700 0.000000 0.000000 0.000000
11.302164 68.477853 333.581384 3.544800 -2.816589 14.273680 1.305189 -1.442437 -14.005654 -1.504058 0.274893 0.140746 -6.480632 18.155275 4.010297 0.000000 0.000000 0.000000 -1.054723 38.589419 -10.950454 -3.606132 19.975750 12.731789 -11.449142 -3.520739 6.561362 -0.526044 -20.198557 25.321090 0.000000 0.000000 0.000000 0.000000 0.000000 0.000000 -44.645009 26.471925 31.739075 25.280544 -20.141879 -38.820682 8.412515 -1.021017 -18.646073 14.064182 -19.676844 -4.538772 0.000000 0.000000 0.000000 0.000000 0.000000 0.000000 -15.927356 4.636867 -21.030109 10.511189 -2.952817 3.768594 -4.042838 11.356246 8.153638 0.000000 0.000000 0.000000 -13.424078 5.026739 -14.550431 11.307993 -6.072746 -0.384677 -2.736188 5.919745 7.496613 0.000000 0.000000 0.000000
11.765214 67.812902 333.342838 3.346601 -2.461268 43.745320 0.752472 -2.171280 -43.492633 -1.342227 -0.009046 0.161787 -6.562879 18.584866 4.128247 0.000000 0.000000 0.000000 -1.305496 37.325636 -10.875844 -3.070623 19.532905 12.494321 3.846804 -1.937870 10.247710 -24.166934 -21.153579 16.418941 0.000000 0.000000 0.000000 0.000000 0.000000 0.000000 -52.410405 34.880910 50.814717 25.102542 -50.016391 -44.710000 -5.232320 4.560651 -16.939751 14.130486 -19.634279 -7.748939 0.000000 0.000000 0.000000 0.000000 0.000000 0.000000 -9.426537 13.457877 -49.689505 10.350150 -6.077084 3.414979 -3.190079 7.523995 10.581641 0.000000 0.000000 0.000000 -14.257943 6.261855 -44.748662 11.342257 0.286100 -0.210576 -2.631610 6.032055 8.550812 0.000000 0.000000 0.000000
11.757266 67.168268 332.995584 2.927682 -2.093740 54.090429 0.583733 -2.409353 -53.867485 -1.095786 -0.199302 0.168612 -7.161513 18.708973 4.256770 0.000000 0.000000 0.000000 -1.006962 34.125409 -10.689090 -1.009492 21.804028 12.231962 -2.282960 -7.089392 7.104317 -28.236776 -21.574026 11.235435 0.000000 0.000000 0.000000 0.000000 0.000000 0.000000 -64.848246 38.964308 71.639318 12.801741 -73.838726 -58.557466 -11.643472 8.480371 -18.435280 11.181680 -19.505812 -7.097120 0.000000 0.000000 0.000000 0.000000 0.000000 0.000000 -4.914587 14.267422 -59.764426 8.700342 -8.274827 2.176952 -3.659250 9.023774 11.227747 0.000000 0.000000 0.000000 -16.409684 5.278199 -55.757396 9.995933 4.698551 -0.127211 -1.942926 6.192295 9.170880 0.000000 0.000000 0.000000
11.279110 66.993841 332.460995 2.390518 -1.598133 56.094487 0.329823 -2.250073 -55.913889 -0.744987 -0.324156 0.153832 -7.561317 18.984275 4.489155 0.000000 0.000000 0.000000 -0.476989 31.398624 -10.298825 0.426322 22.831718 11.701399 -10.533926 -8.574569 4.143161 -32.279713 -24.827006 1.374787 0.000000 0.000000 0.000000 0.000000 0.000000 0.000000 -68.756252 39.049389 77.985182 -4.313852 -82.040543 -78.149108 -16.099366 9.630865 -15.109538 7.362949 -18.883026 -6.503111 0.000000 0.000000 0.000000 0.000000 0.000000 0.000000 -3.564076 12.352499 -61.092862 7.073702 -7.762680 1.586307 -2.626673 5.666995 11.660432 0.000000 0.000000 0.000000 -16.764926 3.183539 -58.255619 7.893129 5.942620 -0.109635 -1.421257 6.496660 9.471980 0.000000 0.000000 0.000000
10.779374 66.694032 331.464428 2.195692 -0.800890 48.455728 0.172625 -1.639608 -48.309633 -0.560190 -0.650341 0.127841 -7.903224 19.239769 4.784595 0.000000 0.000000 0.000000 0.139869 28.328463 -9.637989 0.746104 23.165723 10.925830 -17.366475 -16.007457 -0.218229 -31.791387 -21.857626 -1.588512 0.000000 0.000000 0.000000 0.000000 0.000000 0.000000 -69.298247 38.764340 79.674770 -11.166206 -81.745518 -84.851043 -14.449381 8.989792 -14.898457 6.734891 -18.167205 -5.055269 0.000000 0.000000 0.000000 0.000000 0.000000 0.000000 -6.845101 7.814023 -52.765484 4.680722 -5.958561 0.239737 0.938150 -0.619676 15.456808 0.000000 0.000000 0.000000 -15.085143 0.608550 -50.710313 6.042267 3.529069 -0.469040 -0.792662 7.079872 9.181464 0.000000 0.000000 0.000000
11.357362 65.752244 330.864461 3.066387 -0.481852 47.639547 -0.369337 -0.867358 -47.490604 -0.397327 -0.682971 0.135255 -8.342320 19.699971 5.038189 0.000000 0.000000 0.000000 -0.213166 26.213128 -9.001684 -0.648367 24.091090 10.402202 -26.264517 -21.077094 -5.206675 -22.319180 -18.754418 0.201780 0.000000 0.000000 0.000000 0.000000 0.000000 0.000000 -65.195781 39.162976 74.798806 2.392608 -76.211942 -70.971746 -9.112419 7.105267 -14.995447 7.286301 -17.852369 -2.935049 0.000000 0.000000 0.000000 0.000000 0.000000 0.000000 -9.357690 6.769349 -52.089208 5.208158 -3.313175 0.987919 9.245673 -15.858052 22.203783 0.000000 0.000000 0.000000 -17.079080 1.002483 -49.945706 6.530489 3.981689 -0.529409 -0.379603 7.404303 9.292901 0.000000 0.000000 0.000000
11.703726 64.269867 330.575538 3.285740 -0.639359 47.404601 -0.259457 -0.481151 -47.255340 -0.459145 -0.571662 0.128296 -7.554242 19.810629 5.099616 0.000000 0.000000 0.000000 -0.688072 25.285225 -8.332383 -2.397864 23.800863 10.029764 -39.929618 -30.625113 -16.279108 0.718466 -3.648936 15.550242 0.000000 0.000000 0.000000 0.000000 0.000000 0.000000 -60.971285 40.784181 72.749745 -3.622042 -74.413477 -74.053338 -9.364410 7.429530 -15.531365 7.959536 -17.746335 -2.563874 0.000000 0.000000 0.000000 0.000000 0.000000 0.000000 -11.577631 5.789449 -52.326005 6.369254 0.027544 2.165869 11.815330 -21.947556 25.878903 0.000000 0.000000 0.000000 -17.833530 0.833456 -49.807231 6.473943 4.367701 -0.574794 -0.190722 7.733967 9.604644 0.000000 0.000000 0.000000
11.442769 63.156165 330.871515 2.712441 -1.600695 51.131071 0.430927 -0.208084 -50.996829 -0.237750 -0.442174 0.126344 -6.806249 20.254115 5.189938 0.000000 0.000000 0.000000 -1.319384 25.926854 -7.716462 -4.039559 22.767774 9.776291 -39.470907 -35.538321 -19.303467 3.541865 3.989134 21.975065 0.000000 0.000000 0.000000 0.000000 0.000000 0.000000 -56.047756 41.577619 68.467936 -1.333853 -71.280968 -69.494986 -8.978559 7.454396 -16.052477 12.343047 -16.741619 0.066879 0.000000 0.000000 0.000000 0.000000 0.000000 0.000000 -9.371066 6.900717 -55.792401 6.544461 -0.650956 2.146766 15.513560 -25.955170 27.821561 0.000000 0.000000 0.000000 -16.897375 0.518638 -53.615938 5.084570 5.295048 -0.487563 0.013191 7.966655 9.785669 0.000000 0.000000 0.000000
11.005158 62.671915 331.214072 2.074411 -2.468373 51.259939 0.940766 0.000491 -51.152411 0.006519 -0.280787 0.116954 -5.632290 20.384653 5.147335 0.000000 0.000000 0.000000 -1.907169 27.869717 -7.258435 -5.693216 21.165484 9.655380 -32.413782 -34.485139 -15.187741 -0.457656 -0.366993 18.996608 0.000000 0.000000 0.000000 0.000000 0.000000 0.000000 -50.702775 41.591047 63.022289 2.788364 -68.172543 -63.088288 -11.784996 8.420643 -17.041640 16.899433 -14.582382 5.611677 0.000000 0.000000 0.000000 0.000000 0.000000 0.000000 -7.153649 7.346639 -55.648564 6.046842 -2.923074 1.333337 23.724869 -30.913185 31.441867 0.000000 0.000000 0.000000 -15.365258 -0.074467 -53.785268 4.192364 5.132786 -0.514966 0.071184 8.141765 9.889504 0.000000 0.000000 0.000000
